<svg xmlns="http://www.w3.org/2000/svg" viewBox="0 0 531 61.2" enable-background="new 0 0 531 61.2"><style type="text/css">.st0{fill:#CA1A20;} .st1{fill:#78787A;} .st2{fill:#131313;}</style><title>Asset 1</title><g id="Cover"><path class="st0" d="M31.3 50c.1 3.4-1.7 6.5-4.7 8.2-3.1 2-7.5 3-13 3-4.6.1-9.2-.7-13.6-2.3v-7.6c2.7 1 5.4 1.8 8.2 2.5 2 .4 4.1.7 6.2.7 1.8.1 3.5-.2 5.1-1 1.1-.6 1.8-1.7 1.8-3 0-.7-.3-1.5-.8-2-.7-.7-1.5-1.3-2.3-1.7-2-1-4.1-1.9-6.2-2.7-2.3-.8-4.5-1.9-6.6-3.2-1.4-.9-2.6-2.1-3.5-3.5C1 36 .5 34.3.6 32.7c-.1-3.2 1.6-6.3 4.3-8 2.9-1.9 6.9-2.9 11.9-2.9 2.4 0 4.8.2 7.1.7 2.4.5 4.8 1.2 7.1 2l-3.3 6.3c-2.1-.7-4.2-1.3-6.3-1.8-1.6-.3-3.3-.5-5-.5-1.6-.1-3.1.3-4.4 1.1-1 .6-1.5 1.7-1.5 2.8 0 .7.2 1.3.6 1.9.6.6 1.2 1.2 2 1.5 2.1 1 4.3 1.9 6.5 2.7 4.5 1.7 7.6 3.4 9.2 5.2 1.7 1.7 2.6 3.9 2.5 6.3zM58.6 60.7H48.4V29.1h-13v-6.8h36.2v6.8h-13v31.6zM89.2 46v14.7H79V22.3h14c6.5 0 11.4 1 14.5 2.9 3.1 1.8 4.9 5.1 4.7 8.7 0 2.2-.8 4.4-2.3 6-1.8 1.9-4.1 3.4-6.6 4.2 7.2 8.7 11.9 14.2 14.1 16.8h-11.3L94.6 46h-5.4zm0-6.6h3.3c3.2 0 5.6-.4 7.1-1.3 1.5-.8 2.4-2.3 2.3-4 .1-1.7-.8-3.2-2.3-3.9-1.6-.8-4-1.2-7.3-1.2h-3.1v10.4zM123.4 60.7V22.3h10.2v38.4h-10.2zM184.4 60.7h-11.6l-12.6-16.2-4.3 2.5v13.7h-10.2V22.3h10.2v17.6l4-4.5 13-13.1h11.3l-16.8 17 17 21.4zM218.1 60.7h-27.7V22.3h27.7V29h-17.5v8.4h16.3v6.7h-16.3V54h17.5v6.7z"/><path class="st1" d="M246.7 60.7h-10.2V29.1h-13v-6.8h36.3v6.8h-13l-.1 31.6zM277.3 46v14.7h-10.2V22.3h14c6.5 0 11.4 1 14.5 2.9 3.1 1.8 4.9 5.1 4.7 8.7 0 2.2-.8 4.4-2.3 6-1.8 1.9-4.1 3.4-6.6 4.2 7.2 8.7 11.9 14.2 14.1 16.8h-11.3L282.7 46h-5.4zm0-6.6h3.3c3.2 0 5.6-.4 7.1-1.3 1.5-.8 2.4-2.3 2.3-4 .1-1.7-.8-3.2-2.4-3.9-1.6-.8-4-1.2-7.3-1.2h-3.1v10.4h.1zM341 60.7l-3.5-9.2H320l-3.5 9.2h-11l17-38.6h12.4l17 38.6H341zm-5.9-16c-3.3-8.3-5.1-13-5.5-14.1s-.7-1.9-.9-2.6c-.7 2.2-2.8 7.8-6.2 16.6l12.6.1zM378.4 28.5c-3.8 0-6.8 1.2-8.9 3.5s-3.2 5.5-3.2 9.6c0 8.6 4 12.9 12.1 12.9 4.2-.1 8.3-.8 12.3-2v6.8c-4.3 1.4-8.7 2-13.2 2-7 0-12.3-1.7-16-5.1s-5.5-8.3-5.5-14.6c-.1-3.7.9-7.3 2.7-10.5 1.9-3 4.6-5.4 7.8-6.9 3.8-1.7 7.9-2.5 12-2.4 4.8 0 9.6.9 14.1 2.7l-3.3 6.6c-1.8-.7-3.6-1.3-5.4-1.8-1.8-.5-3.7-.8-5.5-.8zM439.5 60.7H428l-12.6-16.2L411 47v13.7h-10.2V22.3H411v17.6l4-4.5 13-13.1h11.3l-16.8 17 17 21.4zM473.2 60.7h-27.7V22.3h27.7V29h-17.5v8.4H472v6.7h-16.2V54h17.5l-.1 6.7zM493.5 46v14.7h-10.2V22.3h14c6.5 0 11.4 1 14.5 2.9 3.1 1.8 4.9 5.1 4.7 8.7 0 2.2-.8 4.4-2.3 6-1.8 1.9-4.1 3.4-6.6 4.2 7.2 8.7 11.9 14.2 14.1 16.8h-11.3L498.9 46h-5.4zm0-6.6h3.3c3.2 0 5.6-.4 7.1-1.3 1.5-.8 2.4-2.3 2.3-4 .1-1.7-.8-3.2-2.4-3.9-1.6-.8-4-1.2-7.3-1.2h-3.1v10.4h.1z"/><path class="st2" d="M10.9 6H3V.4H0v13.9h3V8.7h7.9v5.6h3V.4h-3zM17.1 1.1v13.2h3V.4h-3zM23.5 4.6v5.6c0 2.3 1.8 4.1 4.1 4.1h5.6c2.3 0 4.1-1.8 4.1-4.1V5.4h-.7l-.1.7v-.7h-6.9v2.7h4.7v2.1c0 .4-.1.7-.3 1-.2.2-.5.4-.8.4h-5.6c-.3 0-.6-.1-.8-.4s-.3-.6-.3-1V4.6c0-.4.1-.8.3-1.1s.5-.4.9-.4h9.7V.4h-9.7c-2.3 0-4.2 1.9-4.2 4.2zM51.5 6h-8V.4h-2.9v13.9h2.9V8.7h8v5.6h2.9V.4h-2.9zM73 10.1c0 .4-.1.7-.3 1-.2.2-.5.4-.8.4h-2.3c-.3 0-.6-.1-.8-.3-.2-.3-.4-.6-.4-1V.4h-3v9.7c0 .4-.1.7-.3 1-.2.2-.5.4-.8.4h-2.4c-.3 0-.6-.1-.8-.4-.2-.3-.3-.6-.3-1V.4h-3v9.7c0 2.3 1.8 4.1 4.1 4.1h2.4c1 0 1.9-.4 2.6-1 .7.6 1.7 1 2.6 1h2.4c2.3 0 4-1.8 4.1-4V.4h-3v9.7zM79.3 1.1v13.2h3V.4h-3zM95.4.4H89.7c-2.3 0-4.1 1.8-4.1 4.1v9.7h3V4.5c0-.4.1-.7.3-1 .2-.2.5-.4.8-.4h5.6c.3 0 .6.1.8.4.2.3.3.6.3 1v9.7h3v-.7h.1v-9c0-2.3-1.8-4.1-4.1-4.1zM112.4.4h-9.7V14.2h9.7c2.3 0 4.1-1.8 4.1-4.1V4.5c0-2.3-1.8-4.1-4.1-4.1zm1.1 4.1v5.6c0 .4-.1.7-.3 1-.2.2-.5.4-.8.4v.1h-6.8V3.1h6.8c.3 0 .6.1.8.4s.3.6.3 1zM133.3 3.1V.4h-9.8c-1.1 0-2.2.4-2.9 1.2-.8.8-1.2 1.8-1.2 2.9 0 2.3 1.8 4.1 4.1 4.1h5.6c.3 0 .6.1.8.4s.4.7.3 1.1c0 .4-.1.7-.3 1-.2.2-.5.4-.8.4h-9.7v2.7h9.7c2.3 0 4.1-1.9 4.1-4.1 0-2.2-1.9-4.2-4.1-4.2h-5.6c-.3 0-.6-.1-.8-.4s-.3-.6-.3-1 .1-.8.3-1.1c.2-.2.5-.4.8-.4v-.6h.1v.7h9.7zM136.3 0c-.8 0-1.4.6-1.4 1.4s.6 1.4 1.4 1.4c.8 0 1.4-.6 1.4-1.4s-.6-1.4-1.4-1.4zm0 2.7c-.7 0-1.2-.6-1.2-1.2s.6-1.2 1.2-1.2c.7 0 1.2.6 1.2 1.2.1.6-.5 1.2-1.2 1.2zM136.6 1.5l-.1-.1c.1 0 .2 0 .3-.1.1-.1.1-.2.1-.3 0-.1-.1-.1-.1-.2-.1 0-.1-.1-.2-.1H135.7v1.4h.3v-.6h.4l.1.1.1.2.2.3h.2l-.2-.4-.2-.2zm-.3-.2h-.4l-.1-.5h.5c.1 0 .1.1.2.1.1.1.1.1.1.2v.1l-.1.1h-.2z"/><path class="st1" d="M522 26.6c0-.8.2-1.6.6-2.2.4-.7 1-1.3 1.6-1.6 1.4-.8 3.1-.8 4.5 0 .7.4 1.3 1 1.7 1.6 1.2 2.1.5 4.9-1.6 6.1s-4.9.5-6.1-1.6c-.5-.7-.7-1.5-.7-2.3zm.8 0c0 2 1.6 3.7 3.6 3.7s3.7-1.6 3.7-3.6-1.6-3.7-3.6-3.7c-1.3 0-2.5.7-3.2 1.8-.3.6-.4 1.2-.5 1.8zm5.5-1c0 .6-.3 1.2-.8 1.4l1.4 2.4h-1.5l-1.1-2h-.3v2h-1.4v-5.5h1.6c.6 0 1.1.1 1.6.4.4.3.6.8.5 1.3zm-2.3.8h.2c.3.1.7-.2.7-.5v-.2c0-.2 0-.4-.2-.5s-.4-.2-.6-.2h-.1v1.4z"/></g></svg>